# xmcd
#
# Track frame offsets:
#	150
#	21757
#	35610
#	57037
#	69382
#	85065
#	100652
#	114192
#	131152
#	140752
#	157902
#	176152
#
# Disc length: 2551 seconds
#
# Revision: 4
# Processed by: cddbd v1.5.2PL0 Copyright (c) Steve Scherf et al.
# Submitted via: EasyCDDAExtractor 11.0.3.1
#
DISCID=9909f50c
DTITLE=Various Artist - Songs Across America Collection - Ralph Lauren
DYEAR=1995
DGENRE=Country
TTITLE0=Michael Martin Murphey - Wildfire
TTITLE1=Rosanne Cash - I Wonder
TTITLE2=Willie Nelson - Graceland
TTITLE3=Nilsson - Everybody's Talkin'
TTITLE4=Keb' Mo' - She Just Wants To Dance
TTITLE5=Van Morrison - Brown Eyed Girl
TTITLE6=Bruce Cockburn - Actions Speak Louder
TTITLE7=Jim Croce - Operator (That's Not The Way It Feels)
TTITLE8=Linda Ronstadt - When Will I Be Loved
TTITLE9=Kenny Loggins - Whenever I Call You "Friend"
TTITLE10=James McMurtry - Talkin' At The Texaco
TTITLE11=America - Ventura Highway
EXTD=
EXTT0=
EXTT1=
EXTT2=
EXTT3=
EXTT4=
EXTT5=
EXTT6=
EXTT7=
EXTT8=
EXTT9=
EXTT10=
EXTT11=
PLAYORDER=
